<?xml version="1.0" encoding="UTF-8" standalone="no"?><!DOCTYPE svg PUBLIC "-//W3C//DTD SVG 1.1//EN" "http://www.w3.org/Graphics/SVG/1.1/DTD/svg11.dtd"><svg width="100%" height="100%" viewBox="0 0 492 360" version="1.1" xmlns="http://www.w3.org/2000/svg" xmlns:xlink="http://www.w3.org/1999/xlink" xml:space="preserve" xmlns:serif="http://www.serif.com/" style="fill-rule:evenodd;clip-rule:evenodd;stroke-linejoin:round;stroke-miterlimit:2;"><path d="M86.197,39.89c12.925,-8.1 27.775,-13.818 43.238,-10.905c12.315,2.32 21.731,9.861 32.593,16.149c31.968,18.503 64.587,27.779 101.67,25.189c17.21,-1.164 34.134,-5.023 50.147,-11.436c8.034,-3.359 15.913,-7.084 23.607,-11.164c12.827,-6.718 27.825,-16.776 42.292,-16.359c13.216,0.381 22.57,4.688 31.651,13.924c4.583,-1.825 9.432,-2.901 14.358,-3.187c13.487,-0.584 26.654,4.215 36.604,13.342c1.382,-4.345 3.24,-6.244 8.324,-4.313c5.021,1.907 6.209,7.728 8.261,11.961c1.521,2.518 3.047,4.574 4.223,7.302c2.358,5.481 -0.131,15.05 -7.903,11.354c1.894,8.138 2.85,14.124 2.264,22.671c-1.054,15.395 -9.071,32.256 -19.518,43.559c-5.676,6.142 -15.078,13.515 -21.57,19.091c0.45,3.501 0.555,7.038 0.312,10.559c-1.529,21.195 -15.962,40.837 -31.532,54.416c-0.153,0.236 -0.117,0.185 -0.377,0.353c-1.034,0.952 -1.874,1.767 -3.03,2.578c-0.26,0.426 -0.346,0.431 -0.803,0.706l-0.604,0.445c-0.234,0.375 -0.241,0.416 -0.64,0.596c-2.239,1.937 -4.941,4.084 -7.399,5.742c-0.136,0.151 -0.112,0.146 -0.287,0.219c-4.836,3.882 -11.038,7.713 -16.32,10.987c2.169,8.013 5.632,18.868 4.634,27.061c-0.735,6.029 -7.531,10.429 -13.474,8.568c-13.248,-4.15 -6.633,-19.532 -3.999,-28.46c-3.519,2.103 -8.972,4.374 -12.824,6.002c-11.552,4.887 -23.069,8.292 -35.19,11.393c2.066,5.284 4.936,9.139 7.01,14.222c2.378,5.82 2.5,14.214 -0.134,20.022c-1.748,3.882 -4.992,6.893 -8.996,8.344c-16.709,6.097 -27.46,-11.717 -21.504,-26.136c1.83,-4.432 4.026,-8.404 6.026,-12.72c-10.147,1.475 -18.488,2.604 -28.806,3.235c-30.215,1.721 -60.507,-1.57 -89.649,-9.736c-8.59,-2.351 -22.956,-6.895 -30.975,-10.502c0.776,5.717 2.121,11.345 4.013,16.794c0.968,2.716 2.45,5.549 3.537,8.263c2.887,7.278 5.035,14.477 5.177,22.4c0.179,9.948 -4.135,21.613 -15.89,21.424c-4.449,-0.073 -8.235,-2.376 -11.295,-5.464c-12.337,-12.457 -3.27,-29.397 1.076,-43.237c2.562,-8.28 4.056,-15.268 4.273,-24.045c-5.44,-2.093 -10.77,-5.214 -15.825,-8.112c-20.833,-11.951 -50.601,-33.608 -61.352,-55.574c-5.656,-11.554 -7.14,-24.341 -2.948,-36.587c-27.417,-21.428 -49.107,-42.421 -38.103,-80.705c-4.928,1.21 -8.032,-1.438 -9.265,-6.369c-1.543,-6.17 4.632,-9.651 6.877,-14.236c1.952,-3.988 2.507,-9.839 7.544,-12.013c4.914,-1.917 7.525,0.466 7.982,5.228c5.286,-5.744 11.816,-10.203 19.091,-13.035c10.312,-3.99 23.238,-4.257 33.428,0.2Z" style="fill:#0f0301;fill-rule:nonzero;"/><path d="M399.763,236.721c0.187,-0.416 0.221,-0.414 0.64,-0.596c-0.234,0.375 -0.241,0.416 -0.64,0.596Z" style="fill:#010725;fill-rule:nonzero;"/><path d="M401.007,235.679c0.307,-0.424 0.295,-0.523 0.803,-0.706c-0.26,0.426 -0.346,0.431 -0.803,0.706Z" style="fill:#010725;fill-rule:nonzero;"/><path d="M146.847,72.761c10.48,-0.652 22.857,5.026 22.528,17.064c-0.07,2.572 -0.544,5.939 -0.033,8.412c0.841,3.607 3.514,6.503 4.886,9.897c2.525,6.337 1.13,15.292 -3.726,20.249c-4.858,4.959 -16.051,4.741 -18.842,-2.467c-1.768,-4.567 1.307,-9.04 3.343,-12.864c0.622,-1.168 0.629,-2.923 0.088,-4.138c-2.309,-4.754 -9.54,-4.14 -13.562,-2.107c-5.232,2.527 -6.457,7.324 -9.989,11.39c-2.685,2.905 -5.902,5.327 -9.039,7.727c-7.182,5.493 -11.533,13.493 -14.149,22.052c-3.104,10.157 -5.342,29.819 8.246,33.621c9.467,2.648 19.472,-6.009 22.015,-14.713c0.722,-2.477 1.042,-5.62 -0.295,-7.899c-1.277,-2.175 -3.637,-2.31 -5.232,-0.456c-1.051,1.082 -1.939,2.123 -3.126,3.064c-2.588,2.272 -7.12,1.671 -8.81,-1.442c-1.921,-3.537 -1.483,-11.574 -0.512,-15.381c1.231,-4.826 5.17,-9.118 9.406,-11.461c2.37,-1.311 5.5,-2.279 8.171,-1.392c3.163,0.954 3.726,3.771 6.057,5.434c0.696,0.497 3.734,1.584 4.666,1.91c5.543,1.939 9.58,4.652 12.448,9.858c4.158,7.547 1.917,16.375 -4.965,21.375c-3.51,2.551 -6.445,3.42 -9.919,6.639c-3.097,2.913 -5.337,6.62 -6.477,10.717c-0.859,3.006 -1.71,10.639 -0.672,13.698c1.919,5.659 -1.011,10.802 1.551,15.955c0.732,1.473 2.458,2.38 3.947,2.763c1.673,0.428 3.404,0.234 4.863,-0.764c7.317,-5.411 -2.121,-9.478 0.708,-18.858c3.276,-10.865 12.724,-13.762 16.694,-22.835c3.823,-8.736 4.013,-21.707 6.29,-31.4c1.838,-9.055 5.38,-17.5 7.601,-26.45c2.055,-8.279 0.562,-19.169 8.734,-24.79c3.385,-2.328 7.525,-2.693 11.462,-1.765c3.585,0.845 5.604,2.441 7.559,5.538c4.994,11.348 -7.773,28.834 -13.803,38.122c-2.437,3.708 -4.708,7.523 -6.805,11.433c-7.006,13.363 -12.552,30.802 -7.598,45.734c1.316,3.965 2.765,7.046 3.385,11.284c0.732,4.929 0.376,9.957 -1.044,14.733c-2.034,6.844 -5.134,10.59 -12.39,11.904c-7.136,1.312 -13.303,3.894 -17.644,9.967c-9.318,13.031 -5.85,30.159 0.029,43.845c2.933,6.538 5.285,12.866 6.432,19.997c1.512,9.402 0.365,23.643 -10.702,26.693c-4.484,1.236 -8.681,0.122 -12.31,-2.672c-13.508,-10.398 -7.687,-25.617 -3.06,-38.943c1.567,-4.393 2.913,-8.862 4.032,-13.392c2.259,-9.429 2.872,-18.367 1.487,-28.127c-1.445,-10.181 -4.414,-23.366 -12.75,-30.218c-2.122,-1.745 -4.223,-1.928 -6.123,-3.108c-1.959,-1.232 -5.218,-4.693 -7.444,-5.063c-6.186,-1.034 -9.27,-0.986 -14.489,-5.08c-6.82,-5.347 -9.071,-11.836 -11.881,-19.674c-2.415,-6.737 -5.009,-13.037 -3.228,-20.448c1.714,-6.725 6.257,-11.596 7.238,-19.111c0.855,-6.552 -0.53,-9.791 -1.412,-16.157c-1.273,-9.178 2.662,-17.447 11.267,-21.281c5.942,-2.647 10.094,-2.69 15.028,-7.848c5.819,-6.082 5.021,-12.31 10.517,-18.769c5.843,-6.866 12.636,-9.167 21.357,-10.001Z" style="fill:#fcc112;fill-rule:nonzero;"/><path d="M362.743,73.444c8.998,-4.845 17.899,-9.872 26.696,-15.077c5.413,-3.202 10.678,-6.686 16.135,-9.775c18.26,-10.338 42.701,-6.419 57.41,8.485c0.277,-2.185 0.292,-3.547 2.015,-5.122c3.24,-3.038 9.882,2.345 10.787,5.43c1.582,5.405 4.783,8.92 6.922,13.762c2.215,5.017 -0.949,14.262 -7.949,9.268l-0.871,-0.616c5.396,18.963 3.751,34.842 -5.593,52.286c-6.881,12.849 -15.487,20.625 -26.688,29.707c-17.327,14.05 -36.113,28.505 -55.789,39.074c1.4,-3.317 2.721,-5.489 4.795,-8.463c4.06,-5.822 10.439,-11.61 7.302,-19.454c-1.249,-3.121 -3.337,-5.657 -4.05,-9.066c-2.268,-10.862 5.043,-15.694 2.339,-27.371c-3.378,-14.601 -14.906,-12.852 -18.204,-26.54c-0.728,-3.028 -0.974,-4.974 -1.2,-8.083c-0.557,-7.708 0.93,-22.206 -7.518,-26.025c-1.336,-0.604 -3.537,-0.903 -5.029,-1.12c-0.416,-0.083 -0.796,-0.133 -1.215,-0.193c-0.455,-0.036 -0.677,-0.012 -0.947,-0.395l-0.192,-0.256l0.845,-0.456Z" style="fill:#e14020;fill-rule:nonzero;"/><path d="M423.584,52.558c4.525,-0.441 14.282,0.091 15.426,6.07c0.584,2.65 -2.68,5.459 -5.048,5.811c-16.648,2.48 -30.106,10.51 -40.861,24.159c-1.565,2.154 -2.711,4.834 -5.513,5.58c-3.081,0.821 -4.045,-3.558 -4.289,-5.78c-0.716,-6.565 2.186,-12.43 6.219,-17.429c8.475,-10.398 20.723,-17.018 34.066,-18.412Z" style="fill:#0f0301;fill-rule:nonzero;"/><path d="M424.018,53.29c3.999,-0.418 13.791,0.349 14.275,5.624c0.024,0.268 0.015,0.538 -0.032,0.804c-0.509,3.054 -4.306,4.189 -6.915,4.564c-15.495,2.222 -28.969,11.613 -38.632,23.659c-1.718,2.102 -2.607,5.112 -5.642,5.475c-2.595,0.31 -2.977,-3.792 -3.106,-5.605c-0.458,-6.506 2.745,-12.596 6.917,-17.369c8.39,-9.604 20.353,-16.136 33.133,-17.151Z" style="fill:#e9765f;fill-rule:nonzero;"/><path d="M65.075,37.46c5.593,-0.508 11.231,0.044 16.619,1.628c5.153,1.484 8.534,3.32 13.274,5.606c16.166,7.798 29.555,17.949 43.75,28.709c-7.969,2.523 -14.433,7.488 -17.768,15.294c-2.317,5.424 -3.164,9.842 -8.175,13.894c-7.355,5.947 -15.615,4.3 -21.663,13.05c-7.385,10.686 -0.028,21.16 -1.733,30.733c-2.617,14.697 -10.122,14.519 -6.988,31.587l-2.798,-1.989l-21.74,-16.763c-6.423,-5.029 -12.975,-10.256 -18.794,-15.932c-15.241,-14.868 -24.332,-34.961 -19.6,-56.446c0.427,-1.94 1.834,-5.627 1.832,-7.423c-1.057,-0.212 -2.341,0.532 -3.22,0.5c-3.6,-0.282 -5.751,-3.889 -6.077,-7.085c-0.612,-6.003 4.177,-8.11 6.634,-12.585c1.664,-3.031 1.687,-6.98 4.358,-9.737c2.156,-2.225 5.627,-4.551 8.44,-1.799c1.685,1.748 1.538,3.851 1.53,6.128c0.216,-0.294 0.437,-0.585 0.661,-0.872c7.197,-9.203 19.945,-15.115 31.456,-16.499Z" style="fill:#e14020;fill-rule:nonzero;"/><path d="M67.836,47.201c18.579,-1.319 37.48,11.725 49.032,25.604c0.448,0.538 0.815,2.2 0.986,2.94c-3.535,13.256 -15.003,1.061 -20.333,-3.007c-13.568,-9.148 -25.756,-15.233 -42.616,-10.113c-2.969,1.363 -11.08,5.748 -11.615,-0.78c-0.777,-9.471 18.264,-13.987 24.545,-14.643Z" style="fill:#0f0301;fill-rule:nonzero;"/><path d="M67.757,47.933c9.913,-1.003 20.032,2.814 28.347,7.927c4.622,2.842 19.713,13.91 20.738,18.869c0.275,1.333 -0.128,2.591 -0.871,3.701c-0.851,1.271 -2.031,2.216 -3.567,2.472c-4.518,0.752 -11.123,-6.301 -14.828,-9.011c-0.212,-0.157 -0.425,-0.311 -0.64,-0.461c-11.933,-8.42 -24.382,-13.695 -39.151,-10.286c-3.928,0.907 -6.258,2.264 -9.891,3.584c-1.29,0.469 -3.793,-1.118 -3.89,-2.968c-0.204,-3.878 2.513,-6.061 5.609,-7.829c5.667,-3.531 11.537,-5.402 18.145,-5.998Z" style="fill:#e9765f;fill-rule:nonzero;"/><path d="M356.755,76.679l0.151,0.625c-0.251,0.233 -0.925,0.873 -1.11,1.095c-9.12,11.025 5.946,27.017 10.787,36.723c2.127,4.253 3.478,8.832 3.561,13.612c0.066,3.877 -0.477,11.113 -5.824,10.8c-6.9,-0.367 -10.381,-8.107 -11.437,-14.059c-1.723,-9.723 -0.83,-21.538 -7.859,-29.46c-4.315,-4.866 -14.214,-6.689 -19.024,-1.668c-2.393,2.496 -3.033,5.931 -2.872,9.292c0.299,5.813 3.298,11.153 8.105,14.434c2.324,1.605 4.892,2.808 6.981,4.745c9.434,8.751 2.39,20.891 2.95,31.489c0.209,3.956 1.548,7.953 4.605,10.623c3.578,3.126 8.787,4.305 13.44,4.002c15.336,-1.002 7.421,-13.22 12.106,-18.267c1.144,-1.233 3.006,-2 4.676,-2.062c1.443,-0.054 3.128,0.427 4.194,1.438c1.621,1.539 2.064,4.284 2.11,6.419c0.148,6.973 -3.125,16.36 -8.02,21.395c-7.331,7.538 -10.583,-2.75 -17.768,-2.49c-2.638,0.095 -4.909,1.47 -6.623,3.417c-6.574,7.47 -3.846,15.891 -2.568,24.503c0.589,3.958 0.879,7.932 1.154,11.919c-2.575,0.849 -5.411,1.611 -8.03,2.368c0.309,-3.028 0.144,-6.087 -0.492,-9.066c-0.784,-3.588 -2.4,-7.786 -2.066,-11.466c0.657,-7.287 4.897,-13.462 3.924,-21.226c-0.445,-3.543 -1.75,-6.324 -4.649,-8.668c-2.877,-2.326 -5.946,-2.742 -9.685,-2.092c-9.478,1.648 -4.795,12.534 -9.85,18.381c-1.782,2.064 -2.952,2.965 -5.783,3.478c-1.745,0.316 -3.067,-0.497 -4.444,-1.451c-1.236,-0.857 -1.76,-3.179 -1.777,-4.639c-0.08,-6.858 4.104,-11.011 8.305,-15.718c7.823,-8.763 14.996,-25.238 14.574,-37.136c-0.141,-3.963 -2.261,-8.588 -5.364,-11.129c-4.551,-3.73 -10.079,-5.082 -15.57,-2.138c-2.025,1.085 -4.71,3.434 -6.964,3.539c-2.283,0.29 -3.115,-2.502 -4.289,-3.264c-5.416,-3.516 -12.737,3.216 -13.462,8.502c-0.545,3.961 0.553,6.476 0.443,10.053c-0.129,4.13 -2.225,7.559 -1.757,11.718c0.28,2.44 1.253,4.567 3.213,6.046c2.2,1.664 5.296,2.547 8.008,2.031c9.293,-1.768 5.859,-12.023 8.726,-15.629c0.591,-0.754 1.47,-1.225 2.427,-1.301c3.439,-0.29 4.065,4.534 4.111,7.071c0.163,8.744 -3.792,17.349 -9.344,23.937c-6.428,7.476 -11.673,13.719 -13.686,23.552c-2.344,11.464 1.942,15.682 4.576,25.807c0.94,3.612 -1.037,9.344 -1.244,13.28c-3.666,0.548 -7.703,0.884 -11.418,1.239c2.495,-6.143 3.081,-10.933 1.051,-17.254c-0.518,-1.855 -1.117,-4.091 -0.84,-6.005c0.618,-3.656 2.371,-6.581 3.322,-10.218c1.334,-5.099 -0.26,-11.296 -5.218,-13.835c-1.828,-0.937 -4.897,-0.786 -6.837,-0.066c-5.102,1.896 -7.187,6.985 -9.208,11.571c-0.871,1.937 -2.32,3.916 -4.432,4.586c-1.558,0.492 -3.249,0.324 -4.678,-0.465c-4.43,-2.487 -4.897,-8.375 -3.232,-12.837c4.264,-11.435 20.606,-12.803 25.97,-21.998c4.442,-8.385 8.358,-23.872 6.051,-32.919c-3.288,-12.903 -13.367,-10.635 -22.302,-6.111c-2.738,1.385 -5.983,-1.489 -8.171,-2.869c-4.715,-2.975 -10.85,0.766 -13.263,5.067c-2.516,4.321 -0.518,7.639 -0.865,11.828c-0.456,3.515 -3.757,7.794 -2.266,11.377c3.963,9.53 14.35,4.218 17.692,-2.813c0.908,-1.911 3.809,-5.418 6.117,-3.644c3.544,2.724 3.405,8.86 2.139,12.751c-4.53,14.699 -22.176,16.844 -30.387,28.96c-7.703,11.369 -2.799,15.341 -2.331,26.513c0.244,5.824 -3.704,8.794 -2.196,17.31c-2.953,-0.095 -6.898,-0.616 -9.913,-0.935c8.3,-16.018 -4.731,-28.898 -0.582,-44.819c1.619,-5.927 5.4,-10.9 8.289,-16.25c4.791,-8.872 12.412,-26.818 -0.285,-33.029c-2.761,-1.36 -5.963,-1.508 -8.837,-0.407c-2.42,0.915 -4.601,2.73 -6.088,4.846c-5.696,7.831 -2.652,17.166 -1.86,25.943c0.944,10.465 -2.1,19.643 -7.978,28.257c-1.89,2.77 -3.754,5.452 -5.194,8.555c-3.569,7.699 -3.735,14.39 -0.814,22.305c-2.317,-0.54 -4.677,-1.185 -6.984,-1.784c2.626,-7.45 3.135,-15.076 0.659,-22.675c-1.198,-3.561 -2.786,-7.144 -3.412,-10.87c-2.869,-17.057 4.826,-34.821 13.702,-49.022c7.568,-12.108 14.875,-20.573 17.023,-35.246l3.008,0.93c-1.69,3.666 -3.309,8.504 -3.255,12.545c0.077,5.714 4.51,10.116 10.334,9.571c2.804,-0.26 5.372,-1.677 7.087,-3.911c3.046,-3.938 3.41,-9.502 2.718,-14.253c24.961,4.144 51.263,4.224 74.468,-6.704c3.169,-1.493 6.316,-2.924 9.466,-4.468c10.383,-5.091 20.669,-10.379 30.853,-15.863c3.816,-2.047 7.47,-4.236 11.332,-6.25Z" style="fill:#e14020;fill-rule:nonzero;"/><path d="M118.602,28.953c17.791,-1.272 28.891,8.747 43.222,16.94c8.362,4.781 15.13,8.236 23.999,11.982c19.476,8.412 40.392,12.988 61.601,13.478c22.604,0.631 45.104,-3.321 66.138,-11.617c15.974,-6.462 30.48,-15.021 45.814,-22.755c17.644,-8.899 37.459,-5.665 51.201,8.505c-6.109,2.296 -10.116,5.547 -15.482,8.62c-4.527,2.474 -10.734,8.284 -16.076,4.438c-12.445,-8.956 -12.272,2.317 -14.377,3.701c-3.298,-0.046 -10.152,-14.453 -21.166,0.886c-6.379,10.053 -6.993,19.345 -21.071,14.736c-1.986,-0.65 -6.345,0.9 -7.735,2.706c-4.705,6.117 -1.224,11.416 3.882,15.449c-3.537,1.79 -7.314,3.673 -10.958,5.205c-4.432,-1.152 -6.099,-2.985 -9.838,-5.393c-5.194,-3.346 -10.181,-2.406 -15.195,0.535c-1.972,1.156 -3.97,2.383 -6.216,2.874c-4.887,1.069 -7.716,-2.025 -11.44,-4.356c-4.369,-2.736 -9.259,-3.879 -14.248,-2.548c-8.672,2.314 -12.271,6.387 -16.293,14.057c-0.311,0.594 -1.692,2.742 -2.361,2.891c-2.173,0.438 -2.293,-2.853 -3.27,-4.252c-2.016,-2.885 -5.216,-5.5 -8.973,-4.671c-2.857,0.631 -4.295,2.681 -5.736,5.01l-3.275,-1.041c-0.399,-9.136 -7.627,-13.028 -15.899,-11.918c-1.474,-4.295 -1.779,-9.139 -4.424,-12.996c-5.215,-7.605 -11.393,-0.976 -14.406,-1.608c-3.072,-2.12 -2.201,-7.124 -4.527,-10.292c-1.49,-2.029 -2.663,-2.822 -5.104,-3.414c-5.98,-1.451 -7.841,1.53 -12.182,4.311c-5.347,3.426 -6.127,-5.124 -11.708,-5.888c-4.498,-0.616 -8.284,1.45 -11.832,3.832c-15.758,-11.389 -25.577,-18.162 -43.669,-26.175c9.9,-6.094 19.83,-10.378 31.604,-11.235Z" style="fill:#ebddc4;fill-rule:nonzero;"/><path d="M294.137,74.421c13.192,-0.516 2.449,14.846 -10.291,15.041c-7.786,-0.276 -8.533,-3.876 -1.962,-7.757c3.994,-2.36 7.811,-6.348 12.253,-7.284Z" style="fill:#010725;fill-rule:nonzero;"/><path d="M294.5,75.172c2.517,-0.3 6.129,0.723 4.639,3.961c-1.723,3.741 -4.96,6.708 -8.733,8.315c-2.217,0.945 -4.177,1.195 -6.572,1.317c-12.851,-0.662 -0.097,-7.223 3.4,-9.771c3.003,-2.189 3.602,-3.189 7.265,-3.822Z" style="fill:#bb3644;fill-rule:nonzero;"/><path d="M242.523,81.434c0.424,-0.016 0.866,-0.056 1.29,-0.007c0.667,0.077 1.266,0.45 1.662,0.986c0.441,0.594 0.46,1.487 0.309,2.178c-0.682,3.124 -4.174,5.993 -6.701,7.678c-3.257,2.171 -7.946,4.439 -11.94,3.564c-0.078,-0.017 -0.155,-0.04 -0.233,-0.057c-0.156,-0.034 -0.313,-0.065 -0.469,-0.098l-0.155,-0.069c-1.447,-0.649 -2.827,-1.547 -3.386,-3.111c-0.283,-0.792 -0.36,-1.542 0.028,-2.32c0.983,-1.974 5.136,-2.002 7.08,-2.618c2.156,-0.682 4.302,-1.535 6.258,-2.68c2.173,-1.272 3.826,-2.594 6.257,-3.448Z" style="fill:#010725;fill-rule:nonzero;"/><path d="M242.45,82.169c0.477,-0.019 1.017,-0.092 1.485,0.02c0.441,0.106 0.823,0.445 1.039,0.836c0.307,0.552 0.217,1.237 0.01,1.805c-1.244,3.44 -5.769,6.971 -8.965,8.441c-0.955,0.44 -1.888,0.817 -2.886,1.141c-0.507,0.164 -0.967,0.308 -1.485,0.43c-1.424,0.335 -2.803,0.542 -4.26,0.27c-0.078,-0.015 -0.155,-0.036 -0.233,-0.051c-0.156,-0.03 -0.313,-0.057 -0.469,-0.085c-0.304,-0.12 -0.592,-0.235 -0.882,-0.386c-1.033,-0.537 -2.025,-1.427 -2.304,-2.608c-0.13,-0.55 -0.054,-1.16 0.269,-1.631c0.544,-0.793 1.363,-0.98 2.278,-1.119l1.217,-0.191c0.942,-0.145 1.916,-0.414 2.819,-0.721c0.65,-0.221 1.286,-0.441 1.93,-0.677c0.401,-0.147 0.794,-0.287 1.191,-0.446c0.751,-0.301 1.465,-0.633 2.188,-0.994c2.156,-1.075 3.957,-2.681 6.177,-3.65l0.881,-0.383Z" style="fill:#bb3644;fill-rule:nonzero;"/><path d="M135.355,43.786c1.32,-0.026 2.401,0.056 3.686,0.323c2.467,0.509 7.453,2.636 8.948,4.798c3.594,5.196 -3.169,4.847 -5.674,4.567c-3.612,-0.543 -14.3,-0.008 -14.823,-3.813c-0.142,-1.077 0.16,-2.166 0.836,-3.016c1.631,-2.027 4.615,-2.586 7.025,-2.858Z" style="fill:#010725;fill-rule:nonzero;"/><path d="M146.942,52.854c-3.494,0.321 -7.234,-0.488 -10.71,-0.856c-2.258,-0.239 -7.773,0.464 -8.022,-2.578c-0.259,-3.168 3.734,-4.464 6.195,-4.784c4.308,-0.633 8.947,1.225 12.215,4c1.832,1.555 2.331,2.306 0.793,3.972c-0.101,0.214 -0.229,0.196 -0.47,0.246Z" style="fill:#bb3644;fill-rule:nonzero;"/><path d="M381.633,39.362c3.534,-0.305 8.463,0.237 10.147,4.096c1.862,4.262 -3.807,3.58 -6.172,3.986c-1.285,0.22 -2.753,0.879 -4.072,1.368c-2.164,0.792 -5.138,2.156 -7.358,0.895c-2.152,-1.221 -2.108,-3.743 -0.823,-5.618c1.945,-2.836 5.038,-4.064 8.278,-4.727Z" style="fill:#010725;fill-rule:nonzero;"/><path d="M390.402,42.544c2.877,4.959 -1.463,3.482 -4.685,4.15c-1.898,0.277 -8.239,3.302 -9.862,2.792c-6.669,-2.097 0.47,-8.602 4.505,-9.141c3.814,-0.51 6.182,-0.828 9.071,1.358l0.647,0.495c0.236,0.094 0.26,0.111 0.324,0.347Z" style="fill:#bb3644;fill-rule:nonzero;"/><path d="M207.235,75.404c9.755,-0.318 14.132,8.123 6.784,9.262c-1.786,-0.055 -7.318,-0.437 -8.577,-1.397c-3.854,-2.935 -2.685,-6.945 1.793,-7.866Z" style="fill:#010725;fill-rule:nonzero;"/><path d="M206.877,76.133c0.882,-0.056 1.739,-0.083 2.617,0.05c0.245,0.037 0.488,0.086 0.733,0.12c0.795,0.109 1.533,0.323 2.294,0.575c1.601,0.53 3.511,1.778 4.191,3.383c0.274,0.647 0.332,1.471 0.016,2.117c-0.465,0.949 -1.295,1.197 -2.227,1.525c-1.523,0.013 -2.893,-0.103 -4.399,-0.276c-0.697,-0.08 -1.379,-0.174 -2.065,-0.322c-0.206,-0.045 -0.41,-0.1 -0.617,-0.141c-0.303,-0.06 -0.591,-0.097 -0.886,-0.196c-0.964,-0.323 -1.651,-0.72 -2.07,-1.684c-0.424,-0.976 -0.772,-2.108 -0.309,-3.133c0.418,-0.924 1.196,-1.551 2.152,-1.852c0.038,-0.012 0.077,-0.019 0.116,-0.03l0.454,-0.136Z" style="fill:#bb3644;fill-rule:nonzero;"/><path d="M330.98,61.481c7.416,-0.39 6.835,7.723 -2.952,10.075c-2.31,0.265 -5.944,0.128 -4.865,-3.151c0.75,-2.283 5.7,-6.011 7.818,-6.924Z" style="fill:#010725;fill-rule:nonzero;"/><path d="M330.982,62.225c6.888,-0.222 4.98,6.424 -1.497,8.2l-1.645,0.467c-9.68,0.66 0.073,-7.085 3.142,-8.667Z" style="fill:#bb3644;fill-rule:nonzero;"/><path d="M312.144,113.869c2.436,-0.155 4.566,0.175 6.796,1.165c3.614,1.627 6.43,4.625 7.832,8.331c4.101,10.825 -4.542,29.494 -10.79,38.08c-3.115,4.28 -7.455,7.716 -9.658,12.611c-1.288,2.863 -2.135,6.835 -0.896,9.831c0.594,1.431 1.855,2.711 3.296,3.293c1.906,0.772 4.157,0.448 5.99,-0.375c7.263,-3.257 5.44,-11.866 7.672,-17.039c0.711,-1.647 1.911,-2.864 3.585,-3.522c2.651,-1.039 6.097,-0.993 8.643,0.236c2.828,1.366 4.865,3.533 5.863,6.534c2.724,8.195 -2.461,15.409 -3.271,23.315c-0.453,4.425 1.185,8.314 2.088,12.542c0.633,3.059 0.757,6.204 0.365,9.305c-2.643,22.443 -16.653,19.435 -24.4,35.029c-4.493,9.042 -3.88,19.946 0.555,28.889c1.945,3.924 4.454,7.518 5.841,11.715c1.967,5.949 2.054,13.411 -0.852,19.085c-2.079,4.062 -5.44,6.399 -9.711,7.74c-0.326,0.088 -0.652,0.166 -0.981,0.234c-4.206,0.874 -8.361,0.346 -11.99,-2.025c-8.093,-5.282 -9.13,-15.451 -6.126,-23.982c2.006,-5.695 5.401,-10.836 7.531,-16.514c2.212,-5.897 3.571,-11.997 3.064,-18.313c-0.543,-6.732 -2.892,-14.061 -7.57,-19.097c-2.03,-2.188 -4.291,-3.619 -5.26,-6.611c-1.821,-5.618 1.275,-10.95 0.662,-16.629c-0.574,-5.321 -3.661,-9.609 -4.729,-14.774c-2.169,-10.481 1.694,-20.194 8.049,-28.402c2.928,-3.781 6.221,-7.245 8.852,-11.258c4.084,-6.228 7.506,-15.427 5.793,-22.971c-0.338,-1.492 -0.849,-3.185 -2.254,-4.013c-0.903,-0.532 -2.086,-0.954 -3.135,-0.669c-4.367,1.185 -3.237,9.714 -5.055,13.045c-1.01,1.854 -2.592,3.38 -4.678,3.907c-2.341,0.592 -5.413,-0.047 -7.424,-1.352c-1.804,-1.172 -3.001,-3.047 -3.451,-5.137c-0.849,-3.945 1.185,-7.314 1.526,-11.13c0.321,-3.619 -0.842,-7.202 -0.365,-10.802c0.207,-1.659 0.789,-3.249 1.704,-4.648c1.519,-2.274 4.004,-4.138 6.713,-4.661c4.018,-0.776 4.101,1.987 6.759,3.661c3.179,2.001 7.441,-2.338 10.154,-3.664c1.017,-0.498 2.159,-0.721 3.261,-0.959Z" style="fill:#fcc112;fill-rule:nonzero;"/><path d="M182.491,223.602c2.525,0.679 5.04,1.319 7.6,1.857c3.644,6.518 3.935,9.848 1.465,16.923c-0.6,1.718 -1.229,3.39 -1.261,5.238c-0.045,2.558 1.182,5.501 3.02,7.28c1.806,1.748 4.454,2.59 6.938,2.446c2.792,-0.183 5.386,-1.507 7.172,-3.661c1.188,-1.426 2.001,-3.128 2.364,-4.948c1.203,-5.883 -2.292,-6.973 -2.514,-11.396c-0.143,-2.843 3.608,-5.462 5.404,-7.385c3.51,0.409 7.024,0.786 10.541,1.134c1.19,4.211 3.281,8.125 6.988,10.619c5.228,3.515 12.049,3.247 17.357,-0.007c2.602,-1.594 5.06,-4.155 8.176,-4.622c4.362,-0.655 8.052,2.517 12.622,1.521c3.646,-0.793 6.216,-3.653 8.159,-6.65c3.992,-0.2 7.969,-0.606 11.917,-1.224c0.635,7.316 4.839,8.446 8.353,13.783c5.033,7.638 6.143,17.142 4.306,25.965c-0.626,3.595 -2.02,7.173 -3.408,10.532c-7.368,1.609 -15.2,2.366 -22.704,2.991c-35.864,2.921 -71.951,-1.249 -106.204,-12.27c-7.051,-2.239 -14.088,-4.593 -20.887,-7.523c-0.574,-5.902 0.539,-12.442 3.178,-17.763c3.007,-6.063 8.175,-10.554 14.704,-12.433c2.669,-0.767 5.459,-1.115 8.085,-2.035c4.45,-1.56 6.667,-4.235 8.631,-8.375Z" style="fill:#ebddc4;fill-rule:nonzero;"/><path d="M361.769,75.622c0.151,-0.015 0.299,-0.032 0.448,-0.045c3.081,-0.258 6.698,0.284 9.032,2.433c5.119,4.712 4.52,15.189 4.712,21.628c0.229,7.678 1.541,15.494 7.338,21.028c1.889,1.803 4.126,3.213 6.009,5.017c2.383,2.305 4.216,5.115 5.364,8.224c4.515,11.91 -2.972,16.992 -1.789,28.539c0.686,6.72 6.747,11.012 4.795,17.316c-2.137,6.905 -8.219,11.442 -11.505,18.483c-4.155,8.908 -1.86,13.852 -3.999,22.709c-0.699,3.556 -3.578,5.939 -5.116,8.862c-5.82,11.053 -1.884,24.741 1.051,36.04c1.597,6.151 4.014,15.48 -1.414,20.348c-7.706,6.905 -18.393,0.299 -17.101,-9.641c1.166,-11.109 7.239,-19.936 7.572,-30.96c0.175,-5.768 -2.502,-11.909 -7.248,-15.198c-2.025,-1.48 -4.754,-2.728 -6.472,-4.6c-4.919,-5.36 -4.199,-13.693 -5.116,-20.494c-0.662,-4.895 -2.115,-10.189 -2.088,-14.966c0.562,-5.33 2.867,-12.632 8.903,-14.132c4.296,-1.037 7.005,2.183 10.218,4.096c5.51,3.279 10.444,-2.122 12.842,-6.634c3.274,-6.15 5.995,-14.247 4.211,-21.237c-1.076,-4.209 -5.523,-5.475 -9.254,-3.86c-6.633,2.722 -2.928,10.006 -5.233,14.947c-2.853,6.114 -13.764,5.555 -18.749,2.782c-13.927,-7.747 -3.042,-23.228 -5.734,-35.611c-1.947,-11.899 -15.558,-11.058 -18.715,-22.44c-1.643,-5.917 -1.443,-13.451 5.664,-15.744c3.169,-1.023 8.122,-0.181 10.928,1.571c11.242,7.018 8.448,23.108 11.444,34.172c1.29,5.649 6.71,13.411 13.379,11.858c4.169,-0.97 4.661,-7.597 4.729,-10.962c0.29,-14.359 -11.228,-23.209 -15.809,-35.803c-2.792,-7.674 -2.03,-14.702 6.701,-17.727Z" style="fill:#fcc112;fill-rule:nonzero;"/><path d="M244.709,122.663c3.094,0.121 4.167,1.53 6.647,3.034c4.887,2.962 9.714,-1.785 14.443,-2.77c2.582,-0.559 5.282,-0.035 7.47,1.451c2.933,1.962 4.461,5.269 5.089,8.641c1.095,5.884 -0.01,12.429 -1.378,18.199c-1.801,7.599 -4.143,15.326 -11.35,19.35c-3.795,2.118 -7.703,3.95 -11.247,6.488c-2.531,1.816 -4.941,3.924 -6.688,6.523c-2.057,3.064 -3.079,6.876 -2.242,10.539c0.497,2.171 1.935,4.683 3.885,5.851c1.575,0.942 3.636,1.446 5.43,0.913c4.471,-1.329 5.583,-7.02 7.645,-10.558c1.567,-2.692 4.057,-5.362 7.175,-6.119c2.247,-0.545 4.622,-0.027 6.545,1.224c1.777,1.159 2.889,2.85 3.454,4.878c2.071,7.455 -2.587,11.476 -3.213,18.16c-0.295,3.159 1.2,6.065 1.777,9.108c0.93,4.902 -0.224,11.211 -3.118,15.312c-2.125,3.013 -4.931,4.642 -8.526,5.252c-3.648,0.19 -6.837,-2.317 -10.405,-1.877c-5.367,0.662 -9.169,6.535 -15.906,7.231c-3.929,0.399 -7.852,-0.815 -10.868,-3.364c-4.646,-3.897 -6.854,-11.289 -5.703,-17.159c0.655,-3.342 2.173,-6.547 2.337,-9.979c0.203,-4.235 -1.662,-8.207 -1.958,-12.386c-0.247,-3.485 0.473,-6.876 1.957,-10.03c5.913,-12.571 19.873,-15.198 28.248,-24.997c3.502,-4.099 5.722,-9.572 5.167,-15.029c-0.219,-2.172 -1.149,-4.874 -2.933,-6.261c-0.813,-0.631 -1.964,-0.986 -2.989,-0.765c-2.429,0.524 -4.109,4.178 -5.386,6.048c-1.923,2.812 -4.685,5.412 -8.169,5.988c-1.653,0.273 -3.254,-0.145 -4.598,-1.141c-1.503,-1.114 -2.616,-2.593 -2.841,-4.487c-0.422,-3.544 2.017,-6.49 2.421,-9.886c0.364,-3.063 -0.621,-6.068 0.024,-9.164c0.36,-1.726 1.088,-3.431 2.251,-4.771c1.89,-2.179 4.752,-3.211 7.551,-3.449Z" style="fill:#fcc112;fill-rule:nonzero;"/><path d="M170.108,89.395c5.612,2.504 11.278,4.884 16.993,7.142c-1.953,2.077 -3.16,4.394 -4.027,7.095c-1.634,5.093 -1.401,10.392 -2.641,15.537c-2.334,9.69 -6.165,18.933 -8.093,28.751c-1.749,8.904 -1.93,18.921 -5.011,27.41c-3.72,10.247 -13.388,13.766 -17.107,23.738c-1.713,4.593 -1.095,8.487 0.922,12.827c-3.313,-1.373 -6.843,-2.407 -10.304,-3.344c0.114,-4.863 -1.436,-9.509 -1.165,-14.445c0.429,-7.803 4.015,-14.679 10.603,-18.982c2.736,-1.787 5.711,-3.142 8.145,-5.373c3.346,-3.067 5.64,-7.233 5.792,-11.822c0.265,-8.028 -4.797,-14.753 -11.852,-18.106c-2.312,-1.099 -4.864,-1.466 -7.05,-2.846c-1.444,-0.912 -2.553,-2.357 -3.731,-3.583c-1.535,-1.6 -3.405,-2.556 -5.657,-2.545c-4.679,0.023 -8.601,3.003 -11.744,6.154c-4.802,5.659 -5.241,11.256 -5.02,18.426c0.074,2.395 1.088,5.406 2.899,7.027c5.477,4.902 12.134,-4.579 13.262,-4.576c0.695,0.002 1.243,0.225 1.733,0.711c1.103,1.093 1.512,2.797 1.479,4.297c-0.106,4.797 -3.131,10.032 -6.587,13.258c-3.353,3.13 -7.842,5.386 -12.515,5.148c-3.366,-0.173 -6.44,-1.628 -8.659,-4.177c-4.161,-4.779 -4.375,-12.234 -3.839,-18.198c1.005,-11.184 5.663,-23.349 14.19,-30.951c3.31,-2.951 7.132,-5.238 10.227,-8.452c3.075,-3.193 4.544,-7.553 7.982,-10.388c2.749,-2.267 6.448,-3.487 10.015,-3.064c1.694,0.201 3.489,0.843 4.556,2.24c2.828,3.702 -2.987,8.982 -3.439,13.131c-0.286,2.628 0.375,5.289 2.107,7.319c2.004,2.349 5.021,3.552 8.055,3.741c3.574,0.223 7.391,-0.865 10.06,-3.305c5.583,-5.105 6.972,-15.272 3.936,-22.022c-1.346,-2.994 -3.803,-5.652 -4.575,-8.873c-0.645,-2.694 -0.013,-6.127 0.06,-8.899Z" style="fill:#e14020;fill-rule:nonzero;"/><path d="M59.169,161.35c2.945,1.659 5.817,4.413 8.501,6.512c4.932,3.867 9.954,7.618 15.061,11.25c0.699,2.519 1.72,4.904 2.6,7.363c3.332,9.307 7.705,19.761 17.797,23.502c3.427,1.271 7.465,0.837 10.681,2.536c2.018,1.064 3.493,3.006 5.466,4.15c3.027,1.755 5.462,2.142 8.06,4.848c8.341,8.687 11.628,26.494 11.44,38.439l-0.299,0.263l-0.948,-0.38c-21.597,-10.171 -41.328,-23.904 -58.369,-40.625c-6.524,-6.518 -12.368,-13.061 -16.549,-21.394c-5.731,-11.42 -7.532,-24.219 -3.441,-36.464Z" style="fill:#ebddc4;fill-rule:nonzero;"/><path d="M214.321,134.799c1.446,-0.084 2.789,-0.032 4.19,0.375c3.032,0.879 5.427,3.081 6.887,5.842c4.311,8.154 -1.798,20.679 -5.834,27.95c-2.268,4.085 -4.993,7.886 -6.718,12.257c-5.608,14.219 3.439,25.072 2.2,38.921c-0.252,2.816 -0.917,5.8 -2.382,8.251c-1.548,2.59 -5.799,5.204 -6.061,8.205c-0.407,4.661 4.312,7.477 2.155,13.633c-0.984,2.809 -3.304,4.578 -5.882,5.817c-2.702,0.703 -5.222,0.828 -7.716,-0.677c-1.366,-0.83 -2.461,-2.04 -3.152,-3.481c-3.059,-6.233 2.806,-12.284 1.916,-18.822c-0.616,-4.53 -3.686,-8.137 -4.793,-12.53c-1.756,-6.966 -0.027,-14.674 3.558,-20.784c2.017,-3.437 4.485,-6.562 6.425,-10.064c2.939,-5.304 4.858,-10.804 5.358,-16.87c0.257,-3.307 0.177,-6.632 -0.24,-9.922c-0.899,-7.525 -2.857,-15.095 1.404,-22.028c2.048,-3.333 4.907,-5.199 8.685,-6.072Z" style="fill:#fcc112;fill-rule:nonzero;"/><path d="M435.499,167.793c0.049,0.06 0.105,0.115 0.146,0.181c0.414,0.675 0.421,2.048 0.472,2.84c0.331,5.953 -0.358,11.919 -2.037,17.641c-6.465,22.694 -24.198,40.379 -42.74,53.963c-5.029,3.685 -10.191,7.316 -15.633,10.366c-1.302,-6.893 -1.833,-16.95 2.266,-23.105c1.976,-2.969 4.116,-5.24 4.975,-8.823c1.499,-6.241 0.616,-12.586 2.514,-18.802c2.419,-1.677 5.116,-3.094 7.647,-4.605c3.851,-2.31 7.662,-4.688 11.43,-7.131c10.697,-6.944 20.937,-14.645 30.96,-22.525Z" style="fill:#ebddc4;fill-rule:nonzero;"/><path d="M348.198,216.052c0.253,0.151 2.251,6.744 3.188,8.419c2.692,4.824 9.561,5.27 13.121,12.496c3.709,7.533 1.263,15.611 -1.322,23.067c-11.929,5.703 -22.582,9.957 -35.236,13.961c-4.405,1.253 -8.828,2.453 -13.263,3.6c-1.468,-5.094 -2.188,-10.077 -1.468,-15.368c1.056,-7.752 5.223,-14.1 11.133,-19.089c1.735,-1.465 3.644,-2.711 5.437,-4.104c6.411,-4.985 9.558,-12.795 10.522,-20.669c2.634,-0.75 5.262,-1.521 7.886,-2.312Z" style="fill:#ebddc4;fill-rule:nonzero;"/><path d="M242.085,97.14c5.085,-3.47 9.748,-5.31 16.015,-4.324c6.253,0.984 10.05,6.665 15.202,7.308c7.224,0.902 12.394,-7.997 20.776,-5.296c3.58,1.155 5.128,3.3 7.628,4.562c0.192,0.011 0.2,0.049 0.316,0.215c1.714,1.134 2.957,1.527 4.883,2.102c-3.23,1.292 -7.475,3.542 -10.478,4.528c-19.705,6.467 -43.205,7.112 -63.47,3.357c1.745,-2.094 2.504,-3.566 3.709,-6.02c0.036,-0.28 -0.018,-0.37 0.244,-0.445c1.169,-1.875 2.562,-3.602 4.146,-5.141c0.234,-0.556 0.387,-0.88 1.027,-0.845Z" style="fill:#8e0110;fill-rule:nonzero;"/><path d="M241.058,97.986c0.234,-0.556 0.387,-0.88 1.027,-0.845c-0.363,0.414 -0.531,0.627 -1.027,0.845Z" style="fill:#010725;fill-rule:nonzero;"/><path d="M236.667,103.571c0.036,-0.28 -0.018,-0.37 0.244,-0.445c-0.065,0.256 -0.065,0.241 -0.244,0.445Z" style="fill:#010725;fill-rule:nonzero;"/><path d="M301.707,99.39c0.192,0.011 0.2,0.049 0.316,0.215c-0.19,-0.073 -0.224,-0.054 -0.316,-0.215Z" style="fill:#010725;fill-rule:nonzero;"/><path d="M361.21,60.833c0.952,1.136 1.507,1.972 2.952,2.247c2.831,-0.841 2.41,-5.98 5.783,-6.959c1.699,-0.493 3.325,-0.277 4.895,0.617c4.6,2.814 4.079,3.372 9.453,3.823c-14.723,8.399 -29.57,16.581 -44.534,24.543c-4.6,2.435 -15.869,8.661 -20.435,10.479c-7.119,-5.015 -9.614,-14.392 1.076,-17.179c5.194,-1.354 6.44,4.863 14.351,-0.576c0.083,-0.233 0.139,-0.256 0.377,-0.328c4.795,-3.799 6.263,-11.936 12.287,-17.971c0.095,-0.27 0.163,-0.296 0.438,-0.384l0.55,-0.377c0.146,-0.187 0.131,-0.205 0.343,-0.287c4.52,-2.171 7.299,-2.285 11.262,1.037c0.657,0.457 1.051,0.548 1.202,1.315Z" style="fill:#8e0110;fill-rule:nonzero;"/><path d="M360.007,59.518c0.657,0.457 1.051,0.548 1.202,1.315c-0.584,-0.367 -0.786,-0.747 -1.202,-1.315Z" style="fill:#010725;fill-rule:nonzero;"/><path d="M334.75,77.827c0.083,-0.233 0.139,-0.256 0.377,-0.328c-0.156,0.229 -0.114,0.176 -0.377,0.328Z" style="fill:#010725;fill-rule:nonzero;"/><path d="M347.414,59.528c0.095,-0.27 0.163,-0.296 0.438,-0.384c-0.178,0.24 -0.175,0.227 -0.438,0.384Z" style="fill:#010725;fill-rule:nonzero;"/><path d="M139.2,63.202c7.08,-0.394 6.51,2.872 10.468,6.079c4.842,2.74 7.966,-4.421 12.68,-4.767c3.238,-0.238 5.917,0.329 8.097,2.838c2.84,3.27 1.614,8.363 5.029,10.997c1.383,1.067 4.772,-1.008 5.973,-1.399c9.566,-3.106 10.8,9.53 12.722,15.67c-0.867,0.222 -1.895,0.593 -2.76,0.879c-1.529,0.652 -2.534,1.426 -3.797,2.454c-5.898,-2.288 -11.728,-4.747 -17.482,-7.374c-0.054,-0.474 -0.12,-0.947 -0.197,-1.418c-1.743,-10.894 -12.586,-15.434 -22.675,-15.139c-2.416,0.071 -5.238,0.663 -7.65,1.062c-2.819,-2.013 -5.582,-4.102 -8.286,-6.267c2.937,-2.059 4.464,-2.694 7.88,-3.614Z" style="fill:#8e0110;fill-rule:nonzero;"/><path d="M220.085,100.92c1.402,-0.048 2.713,0.157 3.985,0.78c2.774,1.358 4.515,4.021 5.432,6.893c1.37,4.292 1.017,9.579 -1.127,13.57c-1.54,2.868 -3.63,4.215 -6.65,5.122c-2.035,0.201 -3.934,0.171 -5.809,-0.764c-2.081,-1.038 -3.544,-2.931 -4.221,-5.137c-1.419,-4.625 0.664,-11.187 2.837,-15.316c1.263,-2.401 2.89,-4.332 5.552,-5.148Z" style="fill:#fcc112;fill-rule:nonzero;"/><path d="M140.682,209.125c2.552,0.969 9.025,2.191 10.751,3.853c0.433,0.419 0.476,1.017 0.479,1.587c0.008,1.665 -0.827,2.797 -1.938,3.938c-0.071,0.041 -0.142,0.085 -0.212,0.129c-1.074,0.672 -2.11,1.207 -3.418,1.168c-1.689,-0.066 -3.276,-0.828 -4.382,-2.105c-2.134,-2.483 -1.543,-5.601 -1.28,-8.57Z" style="fill:#ebddc4;fill-rule:nonzero;"/><path d="M356.755,76.679c0.107,-0.087 0.217,-0.174 0.324,-0.26c0.523,-0.322 1.059,-0.618 1.611,-0.887c1.107,-0.535 2.088,-1.146 3.208,-1.631l0.192,0.256c0.27,0.382 0.492,0.359 0.947,0.395c0.419,0.06 0.798,0.11 1.215,0.193c-3.442,0.328 -4.496,0.398 -7.346,2.56l-0.151,-0.625Z" style="fill:#cd4e35;fill-rule:nonzero;"/></svg>